<svg width="20" height="20" viewBox="0 0 20 20" fill="none" xmlns="http://www.w3.org/2000/svg">
<g id="Group">
<path id="Vector" d="M18.75 13.75C18.375 13.75 18.0313 14.0625 18.0313 14.4687V17.25C18.0313 17.5313 17.8125 17.75 17.5312 17.75H2.46875C2.1875 17.75 1.96875 17.5313 1.96875 17.25V14.4687C1.96875 14.0625 1.625 13.75 1.25 13.75C0.875 13.75 0.53125 14.0625 0.53125 14.4687V17.25C0.53125 18.3125 1.375 19.1562 2.4375 19.1562H17.5312C18.5938 19.1562 19.4375 18.3125 19.4375 17.25V14.4687C19.4688 14.0625 19.125 13.75 18.75 13.75Z" fill="#212E45"/>
<path id="Vector_2" d="M9.50017 14.5313C9.62517 14.6563 9.81267 14.7188 10.0002 14.7188C10.1877 14.7188 10.3439 14.6563 10.5002 14.5313L15.0314 10.125C15.3127 9.84375 15.3127 9.40625 15.0314 9.125C14.7502 8.84375 14.3127 8.84375 14.0314 9.125L10.7189 12.375V1.5625C10.7189 1.1875 10.4064 0.84375 10.0002 0.84375C9.62517 0.84375 9.28142 1.15625 9.28142 1.5625V12.375L5.96892 9.125C5.68767 8.84375 5.25017 8.875 4.96892 9.125C4.68767 9.40625 4.71892 9.84375 4.96892 10.125L9.50017 14.5313Z" fill="#212E45"/>
</g>
</svg>
