<svg width="160" height="30" viewBox="0 0 160 30" fill="none" xmlns="http://www.w3.org/2000/svg">
<path d="M14.5455 29.048C22.5787 29.048 29.0909 22.5454 29.0909 14.524C29.0909 6.50261 22.5787 0 14.5455 0C6.51222 0 0 6.50261 0 14.524C0 22.5454 6.51222 29.048 14.5455 29.048Z" fill="#3758F9"/>
<path d="M9.33987 20.1774V12.3883C9.33987 11.9998 9.48139 11.6701 9.76431 11.3993C10.0474 11.1284 10.3834 10.9931 10.7726 10.9931H18.5377C18.9269 10.9931 20.0673 11.0381 20.3445 11.3148C20.7803 11.5796 20.9888 12.0175 20.9888 12.406V18.0579L17.4511 21.5902H10.755C10.3658 21.5902 10.0327 21.4519 9.75549 21.1752C9.47841 20.8986 9.33987 20.5659 9.33987 20.1774ZM5.81987 10.4632C5.74917 10.0746 5.82583 9.72438 6.04986 9.41235C6.27388 9.10033 6.58053 8.9089 6.96968 8.8383L14.6463 7.47828C15.0355 7.40769 15.3863 7.48424 15.6987 7.70793C16.0112 7.93162 16.2028 8.23782 16.2736 8.62639L16.4505 9.58009H10.755C9.97665 9.58009 9.31042 9.85676 8.75615 10.4102C8.20187 10.9636 10.199 18.3758 10.199 19.1529H7.92479C7.73618 19.047 7.57403 18.9057 7.43835 18.729C7.30279 18.5525 7.21731 18.3522 7.1819 18.1285L5.81987 10.4632ZM18.5377 17.3514H16.4152C16.2146 17.3514 16.0466 17.4191 15.911 17.5545C15.7754 17.69 15.7076 17.8577 15.7076 18.0579V20.1774L18.5377 17.3514Z" fill="#000E4F"/>
<path d="M11.6143 20.1774V12.3883C11.6143 11.9998 11.7557 11.6701 12.0387 11.3993C12.3218 11.1284 12.6579 10.9931 13.047 10.9931H20.8121C21.2013 10.9931 21.5344 11.1314 21.8115 11.4081C22.0886 11.6848 22.2271 12.0175 22.2271 12.406V18.0579L18.6895 21.5902H13.0293C12.6401 21.5902 12.307 21.4519 12.0299 21.1752C11.7528 20.8986 11.6143 20.5659 11.6143 20.1774ZM8.09429 10.4632C8.02359 10.0746 8.10025 9.72438 8.32427 9.41235C8.5483 9.10033 8.85494 8.9089 9.24397 8.8383L16.9206 7.47828C17.3098 7.40769 17.6607 7.48424 17.9732 7.70793C18.2856 7.93162 18.4772 8.23782 18.5481 8.62639L18.7249 9.58009H13.0293C12.2511 9.58009 11.5847 9.85676 11.0306 10.4102C10.4763 10.9636 10.1992 11.6289 10.1992 12.406V19.1529C10.0105 19.047 9.84833 18.9057 9.71277 18.729C9.57721 18.5525 9.49161 18.3522 9.45631 18.1285L8.09429 10.4632ZM20.8121 17.3514H18.6895C18.489 17.3514 18.3211 17.4191 18.1854 17.5545C18.0498 17.69 17.982 17.8577 17.982 18.0579V20.1774L20.8121 17.3514Z" fill="white"/>
<path d="M38.3613 21.7861V10.7866H34.0171V8.23034H45.8474V10.7866H41.5031V21.7861H38.3613Z" fill="#0B102C"/>
<path d="M53.6663 11.2126C54.4938 11.2126 55.2308 11.3804 55.8772 11.7161C56.5366 12.0388 57.0538 12.5423 57.4288 13.2266C57.8037 13.8979 57.9912 14.7629 57.9912 15.8215V21.7861H54.9657V16.2863C54.9657 15.4471 54.7782 14.8275 54.4033 14.4272C54.0413 14.027 53.5241 13.8269 52.8518 13.8269C52.3734 13.8269 51.9403 13.9302 51.5524 14.1368C51.1774 14.3304 50.8801 14.6338 50.6603 15.0469C50.4534 15.4601 50.35 15.9894 50.35 16.6349V21.7861H47.3245V7.41699H50.35V14.2529L49.6712 13.3815C50.0461 12.6844 50.5827 12.1486 51.2809 11.7742C51.9791 11.3998 52.7742 11.2126 53.6663 11.2126Z" fill="#0B102C"/>
<path d="M65.9875 21.941C64.798 21.941 63.7508 21.7086 62.8457 21.2438C61.9536 20.7791 61.2619 20.1465 60.7706 19.346C60.2793 18.5327 60.0336 17.6096 60.0336 16.5768C60.0336 15.5311 60.2728 14.608 60.7512 13.8075C61.2425 12.9942 61.9083 12.3616 62.7488 11.9097C63.5892 11.445 64.5395 11.2126 65.5997 11.2126C66.6211 11.2126 67.5391 11.4321 68.3536 11.871C69.1811 12.2971 69.834 12.9167 70.3124 13.7301C70.7908 14.5305 71.03 15.4923 71.03 16.6155C71.03 16.7317 71.0235 16.8673 71.0106 17.0222C70.9976 17.1642 70.9847 17.2998 70.9718 17.4289H62.4966V15.6666H69.3815L68.2178 16.1895C68.2178 15.6473 68.1079 15.176 67.8881 14.7758C67.6684 14.3756 67.3645 14.0658 66.9766 13.8463C66.5888 13.6139 66.1362 13.4977 65.6191 13.4977C65.1019 13.4977 64.6429 13.6139 64.2421 13.8463C63.8542 14.0658 63.5504 14.3821 63.3306 14.7952C63.1108 15.1954 63.0009 15.6731 63.0009 16.2282V16.693C63.0009 17.261 63.1237 17.7645 63.3694 18.2035C63.6279 18.6295 63.9835 18.9587 64.436 19.1911C64.9015 19.4106 65.4445 19.5203 66.0651 19.5203C66.6211 19.5203 67.1059 19.4364 67.5197 19.2686C67.9463 19.1007 68.3342 18.849 68.6833 18.5133L70.293 20.2562C69.8146 20.7984 69.2134 21.218 68.4894 21.5149C67.7653 21.799 66.9314 21.941 65.9875 21.941Z" fill="#0B102C"/>
<path d="M73.2575 21.7861V8.23034H79.8903C81.5969 8.23034 82.8769 8.55309 83.7303 9.1986C84.5965 9.84411 85.0297 10.6962 85.0297 11.7548C85.0297 12.4649 84.8551 13.0846 84.506 13.6139C84.1569 14.1303 83.6786 14.5305 83.0709 14.8145C82.4632 15.0986 81.765 15.2406 80.9763 15.2406L81.3448 14.4466C82.1981 14.4466 82.9545 14.5886 83.6139 14.8726C84.2733 15.1438 84.784 15.5504 85.146 16.0927C85.521 16.6349 85.7085 17.2998 85.7085 18.0873C85.7085 19.2492 85.2495 20.1594 84.3315 20.8178C83.4135 21.4633 82.0624 21.7861 80.2781 21.7861H73.2575ZM76.38 19.4235H80.0454C80.86 19.4235 81.4741 19.2944 81.8878 19.0362C82.3145 18.7651 82.5278 18.339 82.5278 17.7581C82.5278 17.19 82.3145 16.7704 81.8878 16.4993C81.4741 16.2153 80.86 16.0733 80.0454 16.0733H76.1472V13.7882H79.5024C80.2652 13.7882 80.847 13.6591 81.2478 13.4009C81.6616 13.1298 81.8685 12.7231 81.8685 12.1809C81.8685 11.6515 81.6616 11.2578 81.2478 10.9996C80.847 10.7285 80.2652 10.5929 79.5024 10.5929H76.38V19.4235Z" fill="#0B102C"/>
<path d="M93.0519 21.941C91.8624 21.941 90.8152 21.7086 89.9101 21.2438C89.018 20.7791 88.3263 20.1465 87.835 19.346C87.3437 18.5327 87.098 17.6096 87.098 16.5768C87.098 15.5311 87.3372 14.608 87.8156 13.8075C88.3069 12.9942 88.9727 12.3616 89.8131 11.9097C90.6535 11.445 91.6039 11.2126 92.6641 11.2126C93.6855 11.2126 94.6035 11.4321 95.418 11.871C96.2455 12.2971 96.8984 12.9167 97.3768 13.7301C97.8552 14.5305 98.0944 15.4923 98.0944 16.6155C98.0944 16.7317 98.0879 16.8673 98.075 17.0222C98.062 17.1642 98.0491 17.2998 98.0362 17.4289H89.561V15.6666H96.4459L95.2822 16.1895C95.2822 15.6473 95.1723 15.176 94.9525 14.7758C94.7327 14.3756 94.4289 14.0658 94.041 13.8463C93.6531 13.6139 93.2006 13.4977 92.6834 13.4977C92.1663 13.4977 91.7073 13.6139 91.3065 13.8463C90.9186 14.0658 90.6148 14.3821 90.395 14.7952C90.1752 15.1954 90.0653 15.6731 90.0653 16.2282V16.693C90.0653 17.261 90.1881 17.7645 90.4338 18.2035C90.6923 18.6295 91.0479 18.9587 91.5004 19.1911C91.9659 19.4106 92.5089 19.5203 93.1295 19.5203C93.6855 19.5203 94.1703 19.4364 94.5841 19.2686C95.0107 19.1007 95.3986 18.849 95.7477 18.5133L97.3574 20.2562C96.879 20.7984 96.2778 21.218 95.5538 21.5149C94.8297 21.799 93.9958 21.941 93.0519 21.941Z" fill="#0B102C"/>
<path d="M103.619 21.941C102.727 21.941 101.867 21.8377 101.04 21.6311C100.225 21.4117 99.5785 21.1405 99.1001 20.8178L100.109 18.6489C100.587 18.9458 101.149 19.1911 101.796 19.3848C102.455 19.5655 103.102 19.6559 103.735 19.6559C104.433 19.6559 104.925 19.572 105.209 19.4041C105.507 19.2363 105.655 19.0039 105.655 18.707C105.655 18.4617 105.539 18.2809 105.306 18.1647C105.086 18.0356 104.789 17.9388 104.414 17.8743C104.039 17.8097 103.625 17.7452 103.173 17.6806C102.733 17.6161 102.287 17.5321 101.835 17.4289C101.382 17.3127 100.968 17.1448 100.593 16.9254C100.218 16.7059 99.9147 16.409 99.6819 16.0346C99.4621 15.6602 99.3522 15.176 99.3522 14.5822C99.3522 13.9237 99.5397 13.3428 99.9147 12.8393C100.303 12.3358 100.858 11.942 101.583 11.658C102.307 11.3611 103.173 11.2126 104.181 11.2126C104.892 11.2126 105.616 11.2901 106.353 11.445C107.09 11.5999 107.705 11.8258 108.196 12.1228L107.187 14.2723C106.683 13.9754 106.172 13.7753 105.655 13.672C105.151 13.5558 104.66 13.4977 104.181 13.4977C103.509 13.4977 103.018 13.5881 102.707 13.7688C102.397 13.9496 102.242 14.1819 102.242 14.466C102.242 14.7242 102.352 14.9178 102.572 15.0469C102.804 15.176 103.108 15.2793 103.483 15.3568C103.858 15.4342 104.265 15.5052 104.705 15.5698C105.157 15.6214 105.61 15.7053 106.063 15.8215C106.515 15.9377 106.922 16.1056 107.284 16.325C107.659 16.5316 107.963 16.8221 108.196 17.1965C108.429 17.558 108.545 18.0356 108.545 18.6295C108.545 19.275 108.351 19.8495 107.963 20.353C107.575 20.8436 107.013 21.2309 106.276 21.5149C105.552 21.799 104.666 21.941 103.619 21.941Z" fill="#0B102C"/>
<path d="M114.678 21.941C113.45 21.941 112.493 21.6311 111.808 21.0114C111.123 20.3788 110.78 19.4429 110.78 18.2035V9.06304H113.806V18.1647C113.806 18.6037 113.922 18.9458 114.155 19.1911C114.387 19.4235 114.704 19.5397 115.105 19.5397C115.583 19.5397 115.991 19.4106 116.327 19.1524L117.141 21.2826C116.831 21.502 116.456 21.6699 116.016 21.7861C115.59 21.8893 115.144 21.941 114.678 21.941ZM109.17 13.9237V11.5999H116.404V13.9237H109.17Z" fill="#0B102C"/>
<path d="M119.053 21.7861V8.23034H124.929C126.145 8.23034 127.192 8.43044 128.071 8.83066C128.95 9.21797 129.629 9.77956 130.108 10.5154C130.586 11.2513 130.825 12.1292 130.825 13.1491C130.825 14.1561 130.586 15.0276 130.108 15.7634C129.629 16.4993 128.95 17.0674 128.071 17.4676C127.192 17.8549 126.145 18.0486 124.929 18.0486H120.798L122.195 16.6349V21.7861H119.053ZM122.195 16.9835L120.798 15.4923H124.755C125.725 15.4923 126.449 15.2858 126.927 14.8726C127.405 14.4595 127.645 13.885 127.645 13.1491C127.645 12.4003 127.405 11.8194 126.927 11.4062C126.449 10.9931 125.725 10.7866 124.755 10.7866H120.798L122.195 9.29543V16.9835Z" fill="#0B102C"/>
<path d="M133.068 21.7861V8.23034H139.235C140.709 8.23034 142.009 8.51436 143.134 9.08241C144.258 9.63755 145.138 10.4186 145.771 11.4256C146.405 12.4326 146.721 13.6268 146.721 15.0082C146.721 16.3767 146.405 17.5709 145.771 18.5908C145.138 19.5978 144.258 20.3853 143.134 20.9533C142.009 21.5085 140.709 21.7861 139.235 21.7861H133.068ZM136.21 19.2105H139.08C139.985 19.2105 140.768 19.0426 141.427 18.707C142.099 18.3584 142.616 17.8678 142.978 17.2352C143.353 16.6026 143.541 15.8603 143.541 15.0082C143.541 14.1432 143.353 13.4009 142.978 12.7812C142.616 12.1486 142.099 11.6645 141.427 11.3288C140.768 10.9802 139.985 10.8059 139.08 10.8059H136.21V19.2105Z" fill="#0B102C"/>
<path d="M152 14.3304H158.516V16.8479H152V14.3304ZM152.233 21.7861H149.091V8.23034H159.35V10.7478H152.233V21.7861Z" fill="#0B102C"/>
</svg>
