<svg width="16" height="17" viewBox="0 0 16 17" fill="none" xmlns="http://www.w3.org/2000/svg">
<g id="pencil" clip-path="url(#clip0_3338_7074)">
<path id="Vector" d="M15.3001 3.74922C14.5001 2.89922 13.6501 2.04922 12.8001 1.22422C12.6251 1.04922 12.4251 0.949219 12.2001 0.949219C11.9751 0.949219 11.7501 1.02422 11.6001 1.19922L2.17508 10.5492C2.02508 10.6992 1.92508 10.8742 1.85008 11.0492L0.475076 15.2492C0.400076 15.4492 0.450076 15.6492 0.550076 15.7992C0.675076 15.9492 0.850076 16.0492 1.07508 16.0492H1.17508L5.45008 14.6242C5.65008 14.5492 5.82508 14.4492 5.95008 14.2992L15.3251 4.94922C15.4751 4.79922 15.5751 4.57422 15.5751 4.34922C15.5751 4.12422 15.4751 3.92422 15.3001 3.74922ZM5.15008 13.5242C5.12508 13.5492 5.10008 13.5492 5.07508 13.5742L1.85008 14.6492L2.92508 11.4242C2.92508 11.3992 2.95008 11.3742 2.97508 11.3492L9.85008 4.49922L12.0251 6.67422L5.15008 13.5242ZM12.8001 5.87422L10.6251 3.69922L12.1501 2.17422C12.8751 2.87422 13.6001 3.62422 14.3001 4.34922L12.8001 5.87422Z" fill="#4C5E7F"/>
</g>
<defs>
<clipPath id="clip0_3338_7074">
<rect width="16" height="16" fill="white" transform="translate(0 0.5)"/>
</clipPath>
</defs>
</svg>
