<svg width="20" height="20" viewBox="0 0 20 20" fill="none" xmlns="http://www.w3.org/2000/svg">
<g id="printer">
<g id="Group">
<path id="Vector" d="M17.0625 4.53125V2.1875C17.0625 1.28125 16.3125 0.53125 15.4062 0.53125H4.5625C3.65625 0.53125 2.90625 1.28125 2.90625 2.1875V4.53125C2.03125 4.5625 1.3125 5.28125 1.3125 6.15625V10.6562C1.3125 11.5312 2.03125 12.25 2.90625 12.2812V17.8125C2.90625 18.7187 3.65625 19.4687 4.5625 19.4687H15.4375C16.3437 19.4687 17.0937 18.7187 17.0937 17.8125V12.2812C17.9687 12.25 18.6875 11.5312 18.6875 10.6562V6.15625C18.6562 5.28125 17.9375 4.5625 17.0625 4.53125ZM4.34375 2.1875C4.34375 2.0625 4.4375 1.9375 4.59375 1.9375H15.4687C15.5937 1.9375 15.7187 2.03125 15.7187 2.1875V4.53125H4.34375V2.1875ZM15.6562 17.8125C15.6562 17.9375 15.5625 18.0625 15.4062 18.0625H4.5625C4.4375 18.0625 4.3125 17.9687 4.3125 17.8125V12.2812H15.6562V17.8125ZM17.25 10.6562C17.25 10.7812 17.1562 10.9062 17 10.9062H2.96875C2.84375 10.9062 2.71875 10.8125 2.71875 10.6562V6.15625C2.71875 6.03125 2.8125 5.90625 2.96875 5.90625H17C17.125 5.90625 17.25 6 17.25 6.15625V10.6562Z" fill="#212E45"/>
<path id="Vector_2" d="M7.65625 14.6875H12.3438C12.7188 14.6875 13.0625 14.375 13.0625 13.9687C13.0625 13.5625 12.75 13.25 12.3438 13.25H7.65625C7.28125 13.25 6.9375 13.5625 6.9375 13.9687C6.9375 14.375 7.28125 14.6875 7.65625 14.6875Z" fill="#212E45"/>
<path id="Vector_3" d="M7.65625 17.0625H12.3438C12.7188 17.0625 13.0625 16.75 13.0625 16.3437C13.0625 15.9375 12.75 15.625 12.3438 15.625H7.65625C7.28125 15.625 6.9375 15.9375 6.9375 16.3437C6.9375 16.75 7.28125 17.0625 7.65625 17.0625Z" fill="#212E45"/>
</g>
</g>
</svg>
