<svg width="20" height="20" viewBox="0 0 20 20" fill="none" xmlns="http://www.w3.org/2000/svg">
  <g id="Layer_1">
    <path id="Vector"
      d="M13.7957 9.628C13.7566 9.58895 13.7566 9.52563 13.7957 9.48658L15.8209 7.46134C15.8839 7.39834 15.8393 7.29062 15.7502 7.29062H7.49997C6.33964 7.29062 5.22685 7.75156 4.40637 8.57203C3.5859 9.3925 3.12497 10.5053 3.12497 11.6656C3.12497 12.8259 3.5859 13.9387 4.40637 14.7592C5.22685 15.5797 6.33964 16.0406 7.49997 16.0406H9.89997C9.9552 16.0406 9.99997 16.0854 9.99997 16.1406V17.1906C9.99997 17.2459 9.9552 17.2906 9.89997 17.2906H7.49997C6.00812 17.2906 4.57738 16.698 3.52249 15.6431C2.4676 14.5882 1.87497 13.1575 1.87497 11.6656C1.87497 10.1738 2.4676 8.74304 3.52249 7.68815C4.57738 6.63326 6.00812 6.04062 7.49997 6.04062H15.7498C15.8389 6.04062 15.8835 5.93292 15.8205 5.86992L13.7957 3.84467C13.7566 3.80562 13.7566 3.7423 13.7957 3.70325L14.5376 2.96134C14.5766 2.92228 14.64 2.92228 14.679 2.96134L18.3126 6.59491C18.3516 6.63397 18.3516 6.69728 18.3126 6.73634L14.679 10.3699C14.64 10.409 14.5766 10.409 14.5376 10.3699L13.7957 9.628Z"
      fill="#212E45" />
  </g>
</svg>