<svg width="19" height="20" viewBox="0 0 19 20" fill="none" xmlns="http://www.w3.org/2000/svg">
<g id="Group">
<path id="Vector" d="M18.75 18.25L14.0938 13.5938C16.7188 10.4688 16.5625 5.8125 13.625 2.875C10.5312 -0.21875 5.46875 -0.21875 2.375 2.875C-0.71875 5.96875 -0.71875 11.0312 2.375 14.125C3.9375 15.6875 5.96875 16.4375 8 16.4375C9.8125 16.4375 11.625 15.8125 13.0938 14.5938L17.75 19.25C17.875 19.375 18.0625 19.4688 18.25 19.4688C18.4375 19.4688 18.625 19.4062 18.75 19.25C19.0312 18.9688 19.0312 18.5312 18.75 18.25ZM3.375 13.125C0.8125 10.5625 0.8125 6.40625 3.375 3.875C4.65625 2.59375 6.34375 1.96875 8 1.96875C9.65625 1.96875 11.3438 2.59375 12.625 3.875C15.1875 6.4375 15.1875 10.5937 12.625 13.125C10.0937 15.6875 5.9375 15.6875 3.375 13.125Z" fill="#212E45"/>
</g>
</svg>
