<svg width="21" height="20" viewBox="0 0 21 20" fill="none" xmlns="http://www.w3.org/2000/svg">
  <g id="Layer_1">
    <path id="Vector"
      d="M6.70432 9.628C6.74337 9.58895 6.74337 9.52563 6.70432 9.48658L4.67908 7.46134C4.61608 7.39834 4.6607 7.29062 4.74979 7.29062H13C14.1604 7.29062 15.2732 7.75156 16.0936 8.57203C16.9141 9.3925 17.375 10.5053 17.375 11.6656C17.375 12.8259 16.9141 13.9387 16.0936 14.7592C15.2732 15.5797 14.1604 16.0406 13 16.0406H10.6C10.5448 16.0406 10.5 16.0854 10.5 16.1406V17.1906C10.5 17.2459 10.5448 17.2906 10.6 17.2906H13C14.4919 17.2906 15.9226 16.698 16.9775 15.6431C18.0324 14.5882 18.625 13.1575 18.625 11.6656C18.625 10.1738 18.0324 8.74304 16.9775 7.68815C15.9226 6.63326 14.4919 6.04062 13 6.04062H4.75017C4.66109 6.04062 4.61647 5.93292 4.67946 5.86992L6.70434 3.84467C6.74338 3.80562 6.74338 3.7423 6.70433 3.70325L5.96241 2.96134C5.92336 2.92228 5.86004 2.92228 5.82099 2.96134L2.18741 6.59491C2.14836 6.63397 2.14836 6.69728 2.18741 6.73634L5.82099 10.3699C5.86004 10.409 5.92336 10.409 5.96241 10.3699L6.70432 9.628Z"
      fill="#212E45" />
  </g>
</svg>